<!DOCTYPE svg PUBLIC "-//W3C//DTD SVG 1.1//EN" "http://www.w3.org/Graphics/SVG/1.1/DTD/svg11.dtd">
<!-- Uploaded to: SVG Repo, www.svgrepo.com, Transformed by: SVG Repo Mixer Tools -->
<svg fill="#fbff00" height="800px" width="800px" version="1.1" id="Layer_1" xmlns="http://www.w3.org/2000/svg" xmlns:xlink="http://www.w3.org/1999/xlink" viewBox="0 0 512 512" xml:space="preserve">
<g id="SVGRepo_bgCarrier" stroke-width="0"/>
<g id="SVGRepo_tracerCarrier" stroke-linecap="round" stroke-linejoin="round"/>
<g id="SVGRepo_iconCarrier"> <g> <g> <path d="M508.416,3.582c-3.736-3.735-9.418-4.647-14.135-2.27l-13.115,6.607C435.394,30.98,393.802,60.43,357.4,95.519 c-3.517-1.75-7.9-1.168-10.831,1.763l-53.12,53.12l-51.157,22.746c-1.052,0.469-2.011,1.126-2.827,1.942l-215.06,215.06 c-3.67,3.67-3.67,9.62,0,13.289l1.118,1.118l-8.364,8.363l-1.118-1.118c-3.67-3.67-9.62-3.67-13.289,0 c-3.67,3.67-3.67,9.62,0,13.289l84.155,84.155c1.834,1.834,4.24,2.753,6.644,2.753s4.81-0.917,6.644-2.753 c3.67-3.67,3.67-9.62,0-13.289l-1.119-1.119l8.364-8.363l1.119,1.119c1.762,1.763,4.152,2.753,6.644,2.753s4.883-0.99,6.644-2.753 l215.06-215.062c0.816-0.814,1.474-1.774,1.942-2.827l22.746-51.157l53.12-53.12c1.763-1.762,2.753-4.152,2.753-6.644 c0-1.467-0.351-2.894-0.992-4.184c35.09-36.403,64.541-77.997,87.603-123.77l6.608-13.116 C513.066,12.998,512.153,7.317,508.416,3.582z M86.129,481.209L30.79,425.87l8.023-8.023l55.339,55.339L86.129,481.209z M115.204,467.66l-70.865-70.865l201.771-201.771l70.865,70.865L115.204,467.66z M327.236,249.571l-64.807-64.808l33.936-15.089 l45.961,45.96L327.236,249.571z M353.419,200.15L311.85,158.58l41.165-41.165l41.569,41.569L353.419,200.15z M403.534,140.956 l-32.49-32.49c33.634-32.307,71.863-59.63,113.828-81.337C463.163,69.091,435.842,107.32,403.534,140.956z"/> </g> </g> </g>
</svg>